<svg width="208" height="208" viewBox="0 0 208 208" fill="none" xmlns="http://www.w3.org/2000/svg">
<g clip-path="url(#clip0_3_183)">
<path d="M168.346 39.7069C159.911 31.1885 149.876 24.4206 138.818 19.7922C127.759 15.1637 115.895 12.7658 103.907 12.7363C91.9193 12.7068 80.0437 15.0463 68.9626 19.6202C57.8815 24.1942 47.8134 30.9126 39.3366 39.3894C30.8598 47.8661 24.1414 57.9343 19.5675 69.0154C14.9935 80.0965 12.6541 91.9721 12.6836 103.96C12.7131 115.948 15.1109 127.812 19.7394 138.87C24.3679 149.929 31.1357 159.964 39.6541 168.399C48.0891 176.917 58.124 183.685 69.1824 188.313C80.2409 192.942 92.1049 195.34 104.093 195.369C116.081 195.399 127.956 193.059 139.037 188.485C150.119 183.911 160.187 177.193 168.663 168.716C177.14 160.24 183.859 150.171 188.433 139.09C193.007 128.009 195.346 116.134 195.316 104.146C195.287 92.1576 192.889 80.2937 188.261 69.2352C183.632 58.1768 176.864 48.1418 168.346 39.7069ZM26 104.053C25.9971 97.1495 26.9124 90.2764 28.7219 83.6144C31.7038 90.0331 36.0344 95.5784 38.9797 102.164C42.7863 110.63 53.0075 108.282 57.521 115.7C61.5266 122.285 57.2488 130.613 60.2469 137.503C62.4244 142.504 67.5594 143.597 71.1019 147.253C74.7216 150.942 74.6444 155.996 75.1969 160.806C75.8204 166.457 76.8316 172.059 78.2235 177.572C78.2235 177.613 78.2235 177.657 78.256 177.698C47.8563 167.022 26 138.044 26 104.053ZM104 182.053C99.644 182.051 95.2956 181.687 91 180.964C91.0447 179.863 91.065 178.835 91.1747 178.12C92.1619 171.661 95.3957 165.344 99.7588 160.509C104.069 155.74 109.976 152.514 113.616 147.103C117.183 141.822 118.251 134.713 116.781 128.542C114.615 119.425 102.229 116.382 95.55 111.438C91.711 108.595 88.2944 104.199 83.2528 103.842C80.9291 103.679 78.9832 104.179 76.6797 103.586C74.5672 103.037 72.9097 101.9 70.6591 102.196C66.4544 102.749 63.8016 107.242 59.2841 106.632C54.9982 106.06 50.5822 101.042 49.6072 96.9597C48.356 91.7109 52.5078 90.0088 56.9563 89.5416C58.8128 89.3466 60.8969 89.1353 62.6803 89.8178C65.0285 90.6872 66.1375 92.9866 68.246 94.1484C72.1988 96.3178 72.9991 92.8525 72.3938 89.3425C71.4878 84.0856 70.4316 81.9447 75.1197 78.325C78.3697 75.8306 81.1485 74.0269 80.6285 69.5459C80.3197 66.9134 78.8775 65.7231 80.2222 63.1028C81.2419 61.1081 84.041 59.3084 85.865 58.1181C90.5735 55.0469 106.035 55.2744 99.7182 46.6781C97.8616 44.1553 94.4369 39.6459 91.1869 39.0284C87.1244 38.2606 85.3207 42.7944 82.4891 44.7931C79.5641 46.8609 73.8685 49.2091 70.9394 46.0119C66.9988 41.7097 73.5516 40.3 75.0019 37.2938C75.6722 35.8922 75.0019 33.9463 73.8725 32.1141C75.3377 31.4966 76.8273 30.9237 78.3413 30.3956C79.2901 31.0964 80.4156 31.5185 81.5913 31.6144C84.3091 31.7931 86.8725 30.3225 89.245 32.175C91.8775 34.2062 93.7747 36.7738 97.2685 37.4075C100.648 38.0209 104.228 36.0506 105.064 32.5894C105.572 30.485 105.064 28.2628 104.577 26.0894C119.771 26.1768 134.604 30.7271 147.233 39.1747C146.421 38.8659 145.45 38.9025 144.251 39.4591C141.785 40.6047 138.292 43.5216 138.003 46.4141C137.674 49.6966 142.517 50.1597 144.816 50.1597C148.269 50.1597 151.767 48.6159 150.654 44.6266C150.17 42.8959 149.512 41.0963 148.452 40.0075C151.001 41.7761 153.443 43.6943 155.764 45.7519C155.728 45.7884 155.691 45.8209 155.655 45.8616C153.315 48.2991 150.597 50.2288 148.996 53.1944C147.867 55.2825 146.595 56.2738 144.308 56.8141C143.049 57.1106 141.611 57.2203 140.554 58.0653C137.613 60.3809 139.287 65.9466 142.074 67.6162C145.596 69.7247 150.82 68.7334 153.477 65.7231C155.553 63.3669 156.776 59.2759 160.509 59.28C162.153 59.2766 163.732 59.9201 164.905 61.0716C166.449 62.6722 166.144 64.1672 166.473 66.1659C167.054 69.7166 170.186 67.7909 172.092 65.9994C173.48 68.4711 174.734 71.0166 175.845 73.6247C173.749 76.6431 172.083 79.9338 167.042 76.4156C164.023 74.3072 162.167 71.2481 158.377 70.2975C155.066 69.485 151.673 70.33 148.403 70.8947C144.686 71.5406 140.278 71.825 137.459 74.6403C134.733 77.3541 133.291 80.9859 130.39 83.7119C124.78 88.9931 122.411 94.7578 126.043 102.225C129.537 109.403 136.845 113.299 144.731 112.787C152.478 112.271 160.526 107.778 160.302 119.035C160.221 123.021 161.054 125.779 162.277 129.48C163.41 132.893 163.333 136.199 163.593 139.722C163.84 143.846 164.485 147.937 165.518 151.938C158.237 161.313 148.909 168.9 138.247 174.119C127.585 179.339 115.871 182.052 104 182.053Z" fill="#008FA0"/>
<path d="M12.5938 104C93.8354 136.317 140.101 139.277 224.647 106.872" stroke="#1E1E1E" stroke-width="2.4375" stroke-dasharray="20.31 20.31"/>
<path d="M0.264306 98.0965C0.659137 97.1914 1.70569 96.7806 2.59977 97.1798L8.56726 99.783L17.7745 93.4735L19.9486 94.4127L13.4413 101.9L19.4241 104.51L21.9894 103.045L23.6199 103.766L20.8778 107.08L20.3073 111.359L18.6592 110.659L17.9857 107.744L12.0489 105.155L10.9544 115.031L8.7871 114.076L7.14855 103.035L1.18105 100.432C0.299946 100.066 -0.132481 98.9642 0.264306 98.0965Z" fill="#1E1E1E"/>
<path d="M165.238 184.278C97.5085 143.686 70.1747 112.061 47.7349 33.4373" stroke="#1E1E1E" stroke-width="2.22445" stroke-dasharray="18.54 18.54"/>
<path d="M176.244 189.888C176.688 189.106 176.417 188.127 175.64 187.705L170.498 184.849L170.077 174.755L168.211 173.71L166.305 182.512L161.15 179.65L160.819 176.999L159.408 176.224L158.489 180.02L155.686 182.788L157.093 183.587L159.579 182.465L164.695 185.306L158.105 191.533L159.979 192.565L168.904 187.661L174.046 190.516C174.792 190.948 175.829 190.652 176.244 189.888Z" fill="#1E1E1E"/>
</g>
<defs>
<clipPath id="clip0_3_183">
<rect width="208" height="208" fill="white"/>
</clipPath>
</defs>
</svg>
