<svg width="390" height="364" viewBox="0 0 390 364" fill="none" xmlns="http://www.w3.org/2000/svg">
<g opacity="0.4" clip-path="url(#clip0_3_201)">
<path d="M327.484 99.649C306.315 78.271 281.131 61.2864 253.379 49.6707C225.626 38.0551 195.852 32.0374 165.767 31.9633C135.682 31.8893 105.879 37.7603 78.0696 49.2392C50.2603 60.7181 24.9931 77.5786 3.71967 98.8521C-17.5538 120.126 -34.4143 145.393 -45.8932 173.202C-57.3721 201.011 -63.2432 230.815 -63.1691 260.9C-63.0951 290.985 -57.0774 320.759 -45.4617 348.511C-33.8461 376.264 -16.8614 401.448 4.51654 422.616C25.685 443.994 50.8689 460.979 78.6213 472.594C106.374 484.21 136.148 490.228 166.233 490.302C196.318 490.376 226.121 484.505 253.931 473.026C281.74 461.547 307.007 444.686 328.281 423.413C349.554 402.139 366.414 376.872 377.893 349.063C389.372 321.254 395.243 291.45 395.169 261.365C395.095 231.28 389.078 201.506 377.462 173.754C365.846 146.001 348.862 120.817 327.484 99.649ZM-29.7499 261.133C-29.7572 243.808 -27.4601 226.559 -22.9191 209.84C-15.4357 225.949 -4.56749 239.865 2.82411 256.392C12.3771 277.639 38.0285 271.746 49.3555 290.362C59.4081 306.889 48.6724 327.789 56.1966 345.081C61.6613 357.631 74.5481 360.374 83.4385 369.549C92.5225 378.807 92.3288 391.49 93.7153 403.561C95.2799 417.744 97.8178 431.802 101.311 445.637C101.311 445.739 101.311 445.851 101.392 445.953C25.1009 419.16 -29.7499 346.437 -29.7499 261.133ZM166 456.883C155.068 456.879 144.155 455.965 133.375 454.15C133.487 451.387 133.538 448.808 133.813 447.013C136.291 430.803 144.406 414.949 155.356 402.817C166.173 390.848 180.997 382.752 190.132 369.172C199.084 355.918 201.765 338.077 198.075 322.59C192.64 299.712 161.555 292.075 144.794 279.668C135.159 272.531 126.585 261.5 113.933 260.602C108.101 260.195 103.217 261.449 97.4366 259.96C92.1351 258.584 87.9754 255.729 82.3271 256.473C71.775 257.86 65.1175 269.136 53.7803 267.607C43.0242 266.169 31.9419 253.578 29.4951 243.331C26.3549 230.159 36.7745 225.887 47.9384 224.715C52.5976 224.225 57.8278 223.695 62.3036 225.408C68.1965 227.59 70.9798 233.36 76.2711 236.276C86.1912 241.721 88.1997 233.024 86.6806 224.215C84.407 211.023 81.7562 205.65 93.5216 196.566C101.678 190.306 108.651 185.779 107.346 174.534C106.572 167.927 102.952 164.94 106.327 158.364C108.886 153.358 115.911 148.841 120.488 145.854C132.305 138.146 171.108 138.717 155.254 117.144C150.595 110.813 142 99.496 133.844 97.9464C123.649 96.0194 119.122 107.397 112.016 112.414C104.675 117.603 90.3815 123.496 83.0306 115.472C73.1412 104.675 89.5862 101.137 93.226 93.593C94.9082 90.0756 93.226 85.192 90.3916 80.5939C94.0688 79.0442 97.807 77.6067 101.606 76.2813C103.988 78.04 106.812 79.0993 109.763 79.3399C116.583 79.7885 123.017 76.0978 128.971 80.7469C135.577 85.8445 140.338 92.288 149.106 93.8784C157.589 95.4179 166.571 90.4732 168.671 81.7868C169.946 76.5056 168.671 70.9288 167.448 65.4743C205.579 65.6937 242.804 77.1131 274.499 98.3134C272.46 97.5385 270.023 97.6303 267.015 99.0271C260.827 101.902 252.059 109.222 251.335 116.481C250.509 124.719 262.662 125.882 268.432 125.882C277.098 125.882 285.877 122.007 283.083 111.995C281.87 107.652 280.218 103.136 277.557 100.403C283.954 104.842 290.082 109.656 295.909 114.82C295.817 114.911 295.725 114.993 295.633 115.095C289.761 121.212 282.94 126.055 278.923 133.497C276.089 138.738 272.898 141.225 267.158 142.581C263.997 143.326 260.388 143.601 257.738 145.722C250.356 151.533 254.557 165.5 261.551 169.691C270.39 174.982 283.501 172.494 290.169 164.94C295.379 159.026 298.447 148.76 307.817 148.77C311.942 148.761 315.905 150.377 318.848 153.266C322.722 157.283 321.958 161.035 322.784 166.051C324.242 174.962 332.102 170.129 336.884 165.633C340.369 171.836 343.514 178.224 346.304 184.77C341.043 192.345 336.863 200.603 324.211 191.774C316.636 186.482 311.977 178.805 302.464 176.42C294.155 174.381 285.642 176.501 277.435 177.918C268.106 179.539 257.044 180.253 249.969 187.318C243.128 194.129 239.508 203.244 232.229 210.085C218.149 223.338 212.205 237.806 221.32 256.545C230.088 274.56 248.429 284.337 268.218 283.052C287.661 281.758 307.858 270.482 307.297 298.733C307.093 308.734 309.183 315.657 312.252 324.945C315.096 333.509 314.903 341.808 315.555 350.647C316.176 360.998 317.794 371.265 320.388 381.305C302.114 404.833 278.704 423.874 251.946 436.973C225.189 450.071 195.792 456.881 166 456.883Z" fill="white" fill-opacity="0.3"/>
<path d="M-63.3945 261C140.491 342.103 256.599 349.531 468.778 268.207" stroke="white" stroke-opacity="0.3" stroke-width="6.11719" stroke-dasharray="50.98 50.98"/>
<path d="M319.686 462.467C149.71 360.595 81.113 281.229 24.7977 83.9141" stroke="white" stroke-opacity="0.3" stroke-width="5.58251" stroke-dasharray="46.52 46.52"/>
</g>
<defs>
<clipPath id="clip0_3_201">
<rect width="522" height="522" fill="white" transform="translate(-95)"/>
</clipPath>
</defs>
</svg>
