<svg width="189" height="230" viewBox="0 0 189 230" fill="none" xmlns="http://www.w3.org/2000/svg">
<g opacity="0.3" clip-path="url(#clip0_3_193)">
<path d="M356.926 -83.1223C339.042 -98.9715 317.766 -111.564 294.32 -120.175C270.874 -128.787 245.72 -133.248 220.303 -133.303C194.887 -133.358 169.708 -129.005 146.214 -120.495C122.72 -111.985 101.373 -99.4848 83.4011 -83.7131C65.4287 -67.9414 51.1845 -49.2089 41.4868 -28.5916C31.7891 -7.97442 26.829 14.1211 26.8916 36.4256C26.9541 58.7301 32.0381 80.804 41.8513 101.379C51.6645 121.954 66.0136 140.625 84.0743 156.319C101.958 172.168 123.234 184.76 146.68 193.372C170.126 201.983 195.28 206.445 220.697 206.5C246.113 206.554 271.292 202.202 294.786 193.692C318.28 185.181 339.627 172.681 357.599 156.91C375.571 141.138 389.816 122.405 399.513 101.788C409.211 81.1709 414.171 59.0753 414.109 36.7708C414.046 14.4664 408.962 -7.6075 399.149 -28.1826C389.336 -48.7577 374.987 -67.4284 356.926 -83.1223ZM55.125 36.5982C55.1189 23.754 57.0595 10.9661 60.8959 -1.42905C67.2181 10.5135 76.3999 20.831 82.6445 33.0835C90.7151 48.8356 112.386 44.4667 121.955 58.2687C130.448 70.5212 121.378 86.0163 127.735 98.8357C132.352 108.14 143.239 110.174 150.75 116.976C158.424 123.84 158.26 133.242 159.432 142.192C160.754 152.707 162.898 163.129 165.849 173.386C165.849 173.462 165.849 173.545 165.918 173.62C101.465 153.756 55.125 99.841 55.125 36.5982ZM220.5 181.723C211.264 181.721 202.045 181.043 192.938 179.698C193.032 177.649 193.075 175.737 193.308 174.407C195.401 162.388 202.257 150.635 211.508 141.64C220.646 132.766 233.17 126.765 240.888 116.697C248.45 106.87 250.715 93.643 247.597 82.1615C243.007 65.2 216.745 59.5386 202.584 50.3398C194.445 45.0487 187.201 36.8703 176.512 36.2052C171.585 35.9028 167.459 36.8326 162.576 35.729C158.097 34.7086 154.583 32.5922 149.811 33.144C140.896 34.1719 135.272 42.5317 125.694 41.3979C116.607 40.3322 107.244 30.9973 105.177 23.4009C102.524 13.6352 111.327 10.4682 120.758 9.59894C124.695 9.23613 129.113 8.84308 132.894 10.1129C137.873 11.7305 140.224 16.0086 144.695 18.1704C153.075 22.2067 154.772 15.7592 153.489 9.22856C151.568 -0.552261 149.329 -4.53563 159.268 -11.2703C166.159 -15.9113 172.05 -19.2673 170.948 -27.6045C170.293 -32.5024 167.236 -34.7171 170.087 -39.5924C172.248 -43.3036 178.183 -46.6521 182.05 -48.8668C192.033 -54.5811 224.815 -54.1578 211.422 -70.1518C207.485 -74.8457 200.224 -83.2357 193.334 -84.3846C184.72 -85.8132 180.896 -77.3778 174.893 -73.659C168.691 -69.8116 156.615 -65.4428 150.405 -71.3914C142.05 -79.3959 155.943 -82.0188 159.018 -87.6121C160.44 -90.2198 159.018 -93.8404 156.624 -97.2493C159.73 -98.3982 162.889 -99.464 166.099 -100.447C168.11 -99.1428 170.497 -98.3575 172.989 -98.179C178.751 -97.8465 184.186 -100.583 189.217 -97.136C194.798 -93.3567 198.82 -88.5796 206.228 -87.4005C213.394 -86.2591 220.982 -89.9251 222.757 -96.365C223.833 -100.28 222.757 -104.415 221.723 -108.459C253.937 -108.296 285.386 -99.83 312.163 -84.1125C310.44 -84.687 308.381 -84.6189 305.84 -83.5834C300.612 -81.4519 293.205 -76.0248 292.593 -70.6431C291.896 -64.5357 302.163 -63.6741 307.038 -63.6741C314.359 -63.6741 321.775 -66.5463 319.415 -73.9689C318.39 -77.1888 316.995 -80.5373 314.747 -82.563C320.151 -79.2723 325.328 -75.7034 330.251 -71.8751C330.173 -71.8071 330.095 -71.7466 330.018 -71.6711C325.057 -67.1359 319.294 -63.5456 315.901 -58.0278C313.506 -54.1427 310.81 -52.2984 305.961 -51.2931C303.291 -50.7413 300.242 -50.5372 298.002 -48.965C291.766 -44.6566 295.315 -34.3014 301.224 -31.1948C308.691 -27.2719 319.768 -29.1162 325.401 -34.7171C329.803 -39.1011 332.395 -46.7126 340.311 -46.705C343.796 -46.7114 347.143 -45.514 349.63 -43.3717C352.903 -40.3936 352.257 -37.612 352.955 -33.8932C354.187 -27.287 360.828 -30.8698 364.867 -34.2031C367.812 -29.6043 370.469 -24.8681 372.826 -20.0156C368.382 -14.3996 364.85 -8.27713 354.161 -14.8229C347.761 -18.7458 343.825 -24.4374 335.789 -26.2061C328.769 -27.7178 321.577 -26.1457 314.643 -25.095C306.762 -23.8932 297.417 -23.3641 291.439 -18.126C285.66 -13.0768 282.602 -6.31947 276.452 -1.24765C264.557 8.57852 259.535 19.3042 267.236 33.1969C274.643 46.5529 290.138 53.8016 306.857 52.8492C323.282 51.8893 340.345 43.5295 339.872 64.4743C339.699 71.8893 341.465 77.0216 344.058 83.9075C346.461 90.2567 346.297 96.4094 346.848 102.963C347.372 110.637 348.74 118.248 350.931 125.691C335.492 143.135 315.715 157.251 293.11 166.962C270.504 176.673 245.669 181.722 220.5 181.723Z" fill="white" fill-opacity="0.3"/>
<path d="M26.7012 36.5C198.949 96.6284 297.04 102.135 476.295 41.8428" stroke="white" stroke-opacity="0.3" stroke-width="5.16797" stroke-dasharray="43.07 43.07"/>
<path d="M0.560375 25.5161C1.39749 23.8321 3.61638 23.0678 5.512 23.8104L18.1642 28.6539L37.6854 16.9146L42.2948 18.6622L28.498 32.5928L41.1828 37.4487L46.6219 34.7236L50.0787 36.0639L44.2649 42.2298L43.0554 50.1924L39.561 48.8887L38.1332 43.4668L25.546 38.6482L23.2255 57.0231L18.6303 55.247L15.1563 34.7049L2.50405 29.8614C0.635938 29.1802 -0.28089 27.1306 0.560375 25.5161Z" fill="white" fill-opacity="0.3"/>
<path d="M350.338 185.863C206.738 110.338 148.785 51.4974 101.208 -94.7879" stroke="white" stroke-opacity="0.3" stroke-width="4.71625" stroke-dasharray="39.3 39.3"/>
</g>
<defs>
<clipPath id="clip0_3_193">
<rect width="441" height="387" fill="white" transform="translate(0 -157)"/>
</clipPath>
</defs>
</svg>
